<mxfile host="app.diagrams.net" modified="2022-09-08T20:10:14.491Z" agent="5.0 (Windows NT 10.0; Win64; x64) AppleWebKit/537.36 (KHTML, like Gecko) Chrome/104.0.0.0 Safari/537.36" etag="5oDtLWqUDzMWVbEroorp" version="20.2.7" type="github">
  <diagram id="XEyjg-t2I269sPxYjFXt" name="Страница 1">
    <mxGraphModel dx="1038" dy="539" grid="1" gridSize="10" guides="1" tooltips="1" connect="1" arrows="1" fold="1" page="1" pageScale="1" pageWidth="827" pageHeight="1169" math="0" shadow="0">
      <root>
        <mxCell id="0" />
        <mxCell id="1" parent="0" />
        <mxCell id="UrupH_F-70b1x1aMBCOa-6" style="edgeStyle=orthogonalEdgeStyle;rounded=0;orthogonalLoop=1;jettySize=auto;html=1;exitX=0.5;exitY=0;exitDx=0;exitDy=0;" edge="1" parent="1" source="UrupH_F-70b1x1aMBCOa-1" target="UrupH_F-70b1x1aMBCOa-2">
          <mxGeometry relative="1" as="geometry" />
        </mxCell>
        <mxCell id="UrupH_F-70b1x1aMBCOa-10" style="edgeStyle=orthogonalEdgeStyle;rounded=0;orthogonalLoop=1;jettySize=auto;html=1;exitX=0;exitY=1;exitDx=0;exitDy=0;entryX=1;entryY=0;entryDx=0;entryDy=0;" edge="1" parent="1" source="UrupH_F-70b1x1aMBCOa-1" target="UrupH_F-70b1x1aMBCOa-4">
          <mxGeometry relative="1" as="geometry" />
        </mxCell>
        <mxCell id="UrupH_F-70b1x1aMBCOa-11" style="edgeStyle=orthogonalEdgeStyle;rounded=0;orthogonalLoop=1;jettySize=auto;html=1;exitX=1;exitY=1;exitDx=0;exitDy=0;entryX=0;entryY=0;entryDx=0;entryDy=0;" edge="1" parent="1" source="UrupH_F-70b1x1aMBCOa-1" target="UrupH_F-70b1x1aMBCOa-3">
          <mxGeometry relative="1" as="geometry" />
        </mxCell>
        <mxCell id="UrupH_F-70b1x1aMBCOa-1" value="StartUI" style="ellipse;whiteSpace=wrap;html=1;aspect=fixed;" vertex="1" parent="1">
          <mxGeometry x="370" y="160" width="80" height="80" as="geometry" />
        </mxCell>
        <mxCell id="UrupH_F-70b1x1aMBCOa-2" value="Scanner" style="ellipse;whiteSpace=wrap;html=1;aspect=fixed;" vertex="1" parent="1">
          <mxGeometry x="370" y="30" width="80" height="80" as="geometry" />
        </mxCell>
        <mxCell id="UrupH_F-70b1x1aMBCOa-3" value="Item" style="ellipse;whiteSpace=wrap;html=1;aspect=fixed;" vertex="1" parent="1">
          <mxGeometry x="510" y="240" width="80" height="80" as="geometry" />
        </mxCell>
        <mxCell id="UrupH_F-70b1x1aMBCOa-12" style="edgeStyle=orthogonalEdgeStyle;rounded=0;orthogonalLoop=1;jettySize=auto;html=1;exitX=1;exitY=0.5;exitDx=0;exitDy=0;entryX=0;entryY=0.5;entryDx=0;entryDy=0;" edge="1" parent="1" source="UrupH_F-70b1x1aMBCOa-4" target="UrupH_F-70b1x1aMBCOa-3">
          <mxGeometry relative="1" as="geometry" />
        </mxCell>
        <mxCell id="UrupH_F-70b1x1aMBCOa-4" value="Tracker" style="ellipse;whiteSpace=wrap;html=1;aspect=fixed;" vertex="1" parent="1">
          <mxGeometry x="240" y="240" width="80" height="80" as="geometry" />
        </mxCell>
      </root>
    </mxGraphModel>
  </diagram>
</mxfile>
